#!OML:ASF X:\für Bonn\!DataBase\2005_08_11_Bastian_Final\c3d\Bastian.ASF
:FULLY-SPECIFIED
:DEGREES
275
root 18.0274 17.076 -2.93473 1086.86 -59.1982 1.56082
lowerback 57.2055 5.26252 1.70915
upperback 17.8212 4.29514 -0.600431
thorax -1.0928 1.37852 -3.01962
lowerneck -8.51137 -10.1227 2.23662
upperneck -26.0215 -11.6241 19.2839
head -5.40437 -7.94956 6.06674
rclavicle -5.08889e-014 7.85199e-014
rhumerus 44.1845 35.5331 -47.8587
rradius 25.4096
rwrist -14.3031
rhand -25.8757 3.55187
rfingers 7.12502
rthumb 0.665778 -26.4268
lclavicle -5.08889e-014 7.85199e-014
lhumerus -5.93233 -25.3056 -276.605
lradius 29.7137
lwrist -331.068
lhand -14.1276 -11.5881
lfingers 7.12502
lthumb 12.006 18.0475
rfemur -32.4551 -15.2535 23.6318
rtibia 49.6659
rfoot -18.7074 -10.343
rtoes 1.88735
lfemur -34.6338 -7.20386 -19.3488
ltibia 38.0259
lfoot -3.96974 -12.9422
ltoes -20.3464
276
root 17.9779 17.0958 -2.89864 1086.62 -59.5967 1.23158
lowerback 56.3832 5.30855 1.47345
upperback 17.8275 4.24555 -0.695892
thorax -1.05324 1.3506 -2.9956
lowerneck -8.36091 -10.0983 2.00387
upperneck -25.8194 -11.5539 19.5295
head -5.32825 -7.89475 6.1712
rclavicle 1.11319e-014 -9.00495e-014
rhumerus 42.8991 36.2403 -48.5681
rradius 25.7805
rwrist -14.6583
rhand -25.518 3.8823
rfingers 7.12502
rthumb 1.0113 -26.0951
lclavicle 1.11319e-014 -9.00495e-014
lhumerus -6.01193 -24.9853 -276.769
lradius 29.2697
lwrist -331.385
lhand -14.2814 -11.3208
lfingers 7.12502
lthumb 11.8578 18.3235
rfemur -31.3201 -14.8404 23.537
rtibia 49.1524
rfoot -18.7332 -10.3845
rtoes 1.78645
lfemur -33.6459 -7.11551 -19.2346
ltibia 37.86
lfoot -4.24955 -12.6743
ltoes -20.1509
277
root 17.9273 17.1131 -2.86218 1086.4 -60.0181 0.903405
lowerback 55.5533 5.33973 1.23181
upperback 17.8267 4.1797 -0.811078
thorax -1.01402 1.31632 -2.98232
lowerneck -8.19591 -10.062 1.82523
upperneck -25.6247 -11.4794 19.7137
head -5.26762 -7.83959 6.25053
rclavicle 3.49861e-014 -4.37326e-014
rhumerus 41.6167 36.8962 -49.3485
rradius 26.1227
rwrist -14.9603
rhand -25.1152 4.23327
rfingers 7.12502
rthumb 1.40031 -25.7419
lclavicle 3.49861e-014 -4.37326e-014
lhumerus -6.12254 -24.8275 -276.975
lradius 28.9059
lwrist -331.467
lhand -14.3881 -11.2957
lfingers 7.12502
lthumb 11.7548 18.3545
rfemur -30.2019 -14.3882 23.4414
rtibia 48.6473
rfoot -18.7657 -10.4387
rtoes 1.80028
lfemur -32.6754 -7.0465 -19.1165
ltibia 37.7078
lfoot -4.57965 -12.355
ltoes -20.1509
278
root 17.8747 17.13 -2.82514 1086.23 -60.432 0.5034
lowerback 54.6802 5.37067 1.01943
upperback 17.8632 4.13455 -0.87762
thorax -0.923523 1.28891 -2.93416
lowerneck -8.06261 -10.0375 1.56349
upperneck -25.453 -11.4202 19.9109
head -5.20017 -7.7872 6.34584
rclavicle 6.04305e-014 -7.13637e-014
rhumerus 40.4399 37.6134 -49.8794
rradius 26.5173
rwrist -15.4165
rhand -24.8107 4.51782
rfingers 7.12502
rthumb 1.69442 -25.4552
lclavicle 6.04305e-014 -7.13637e-014
lhumerus -6.16874 -24.65 -277.145
lradius 28.541
lwrist -331.544
lhand -14.4824 -11.3875
lfingers 7.12502
lthumb 11.6639 18.2678
rfemur -29.0728 -13.9669 23.3924
rtibia 48.1371
rfoot -18.7967 -10.4402
rtoes 1.91615
lfemur -31.7063 -6.94839 -18.9766
ltibia 37.5776
lfoot -4.89927 -12.079
ltoes -19.8593
279
root 17.8203 17.1458 -2.78709 1086.1 -60.8481 0.0444463
lowerback 53.7995 5.39627 0.849937
upperback 17.9105 4.10811 -0.93484
thorax -0.810244 1.27222 -2.90007
lowerneck -7.9811 -10.016 1.3132
upperneck -25.2508 -11.3706 20.1228
head -5.11374 -7.73791 6.43852
rclavicle -1.35174e-014 2.98177e-015
rhumerus 39.2874 38.3369 -50.3293
rradius 26.9148
rwrist -15.9991
rhand -24.5195 4.78746
rfingers 7.12502
rthumb 1.97559 -25.1831
lclavicle -1.35174e-014 2.98177e-015
lhumerus -6.18749 -24.4749 -277.299
lradius 28.166
lwrist -331.671
lhand -14.512 -11.3862
lfingers 7.12502
lthumb 11.6354 18.2707
rfemur -27.9414 -13.5026 23.3798
rtibia 47.6367
rfoot -18.8255 -10.5329
rtoes 1.7812
lfemur -30.7306 -6.81512 -18.8183
ltibia 37.4629
lfoot -5.23863 -11.8214
ltoes -19.7242
280
root 17.7633 17.1604 -2.74805 1086.1 -61.2652 -0.510163
lowerback 52.8785 5.40638 0.701736
upperback 17.9423 4.08348 -0.979643
thorax -0.702569 1.25718 -2.86119
lowerneck -7.98556 -10.0045 1.04902
upperneck -24.9422 -11.3579 20.3046
head -4.97731 -7.69166 6.50904
rclavicle -5.725e-014 1.33186e-014
rhumerus 37.8336 38.7434 -51.3382
rradius 27.1784
rwrist -16.0223
rhand -24.1327 5.05993
rfingers 7.12502
rthumb 2.34919 -24.9069
lclavicle -5.725e-014 1.33186e-014
lhumerus -6.24713 -24.1774 -277.437
lradius 27.8452
lwrist -331.763
lhand -14.4995 -11.2718
lfingers 7.12502
lthumb 11.6474 18.3845
rfemur -26.8388 -13.0545 23.4263
rtibia 47.1457
rfoot -18.8823 -10.5472
rtoes 1.89895
lfemur -29.7887 -6.68418 -18.6111
ltibia 37.3555
lfoot -5.55847 -11.5749
ltoes -19.5144
281
root 17.705 17.174 -2.70864 1085.92 -61.6788 -0.8768
lowerback 51.9999 5.45429 0.483954
upperback 17.9708 4.07515 -0.988903
thorax -0.598247 1.24256 -2.75765
lowerneck -8.05936 -10.0131 0.776395
upperneck -24.6023 -11.3872 20.4533
head -4.81803 -7.65826 6.56275
rclavicle -5.00937e-014 8.80616e-014
rhumerus 36.0065 38.6299 -52.9698
rradius 27.2138
rwrist -15.4389
rhand -23.6256 5.59716
rfingers 7.12502
rthumb 2.83891 -24.3637
lclavicle -5.00937e-014 8.80616e-014
lhumerus -6.22712 -23.7944 -277.517
lradius 27.43
lwrist -331.872
lhand -14.3879 -11.2317
lfingers 7.12502
lthumb 11.7551 18.4184
rfemur -25.742 -12.6294 23.3766
rtibia 46.6793
rfoot -18.9204 -10.5824
rtoes 1.77094
lfemur -28.8194 -6.57596 -18.5125
ltibia 37.2461
lfoot -5.91288 -11.3026
ltoes -19.2648
282
root 17.6455 17.1873 -2.66774 1085.72 -62.1123 -1.22171
lowerback 51.0991 5.51229 0.269263
upperback 18.0126 4.08429 -0.991933
thorax -0.467951 1.23643 -2.65289
lowerneck -8.13441 -10.0262 0.598475
upperneck -24.3261 -11.4342 20.509
head -4.69342 -7.64107 6.57812
rclavicle -3.37934e-014 2.36554e-014
rhumerus 34.1827 38.5072 -54.4636
rradius 27.3213
rwrist -14.9651
rhand -23.2342 6.07926
rfingers 7.12502
rthumb 3.21692 -23.8762
lclavicle -3.37934e-014 2.36554e-014
lhumerus -6.18882 -23.5294 -277.603
lradius 27.0748
lwrist -331.868
lhand -14.354 -11.1
lfingers 7.12502
lthumb 11.7878 18.5483
rfemur -24.6657 -12.2284 23.312
rtibia 46.2347
rfoot -18.9388 -10.5919
rtoes 1.77243
lfemur -27.845 -6.45444 -18.4329
ltibia 37.1299
lfoot -6.25677 -11.069
ltoes -19.0048
283
root 17.5854 17.1999 -2.62627 1085.55 -62.5407 -1.62048
lowerback 50.2997 5.55932 0.0772716
upperback 18.0126 4.09509 -0.972629
thorax -0.387899 1.22952 -2.53599
lowerneck -8.27808 -10.0446 0.359605
upperneck -23.9593 -11.4969 20.5821
head -4.52113 -7.6175 6.59637
rclavicle 5.56597e-015 -2.62396e-014
rhumerus 32.3618 38.4358 -55.8
rradius 27.4855
rwrist -14.5294
rhand -22.8481 6.51049
rfingers 7.12502
rthumb 3.58977 -23.439
lclavicle 5.56597e-015 -2.62396e-014
lhumerus -6.16585 -23.1298 -277.63
lradius 26.709
lwrist -331.955
lhand -14.242 -10.9318
lfingers 7.12502
lthumb 11.8958 18.7103
rfemur -23.561 -11.7806 23.2715
rtibia 45.8132
rfoot -18.993 -10.6265
rtoes 1.62035
lfemur -26.8361 -6.26838 -18.3531
ltibia 37.005
lfoot -6.60707 -10.8631
ltoes -18.858
284
root 17.525 17.2115 -2.58368 1085.32 -62.9786 -1.90557
lowerback 49.4695 5.61868 -0.163858
upperback 18.0021 4.10721 -0.944456
thorax -0.311453 1.22094 -2.38581
lowerneck -8.35857 -10.0616 0.138735
upperneck -23.6485 -11.553 20.6154
head -4.38295 -7.59649 6.60831
rclavicle -7.03698e-014 8.57756e-014
rhumerus 30.6228 38.4688 -56.8889
rradius 27.7327
rwrist -14.3566
rhand -22.6043 7.01483
rfingers 7.12502
rthumb 3.82523 -22.9306
lclavicle -7.03698e-014 8.57756e-014
lhumerus -6.14379 -22.6647 -277.615
lradius 26.3409
lwrist -332.109
lhand -14.1765 -10.7312
lfingers 7.12502
lthumb 11.959 18.9072
rfemur -22.5209 -11.3785 23.1874
rtibia 45.4112
rfoot -19.0092 -10.6672
rtoes 1.34942
lfemur -25.8622 -6.131 -18.3213
ltibia 36.8775
lfoot -6.93183 -10.6474
ltoes -18.5973
285
root 17.4643 17.2221 -2.5401 1085.15 -63.4105 -2.26857
lowerback 48.7116 5.65466 -0.382624
upperback 17.9413 4.10787 -0.903768
thorax -0.293299 1.2073 -2.22939
lowerneck -8.37735 -10.0591 -0.115785
upperneck -23.3339 -11.5739 20.6582
head -4.25394 -7.55738 6.6333
rclavicle -2.78299e-014 -4.18442e-014
rhumerus 28.8995 38.626 -57.8539
rradius 28.0668
rwrist -14.3098
rhand -22.3737 7.3874
rfingers 7.12502
rthumb 4.04794 -22.5539
lclavicle -2.78299e-014 -4.18442e-014
lhumerus -6.20356 -22.236 -277.575
lradius 26.0598
lwrist -332.283
lhand -14.163 -10.3818
lfingers 7.12502
lthumb 11.9719 19.2558
rfemur -21.4813 -10.9894 23.1389
rtibia 45.0261
rfoot -19.0625 -10.6655
rtoes 1.04967
lfemur -24.8861 -5.95534 -18.2666
ltibia 36.7553
lfoot -7.27539 -10.4487
ltoes -18.4166
286
root 17.4029 17.232 -2.49781 1084.99 -63.8351 -2.64556
lowerback 46.9958 5.6585 -0.541054
upperback 18.7888 4.11269 -0.822218
thorax -0.163752 1.19622 -2.11413
lowerneck -8.42487 -10.0461 -0.309649
upperneck -23.0287 -11.5815 20.7115
head -4.12916 -7.51813 6.65249
rclavicle 5.24792e-014 -2.62396e-014
rhumerus 27.3153 38.7822 -58.72
rradius 28.3741
rwrist -14.3999
rhand -22.0492 7.69184
rfingers 7.12502
rthumb 4.36126 -22.2433
lclavicle 5.24792e-014 -2.62396e-014
lhumerus -6.18904 -21.7845 -277.563
lradius 25.7554
lwrist -332.433
lhand -14.1563 -10.0855
lfingers 7.12502
lthumb 11.9783 19.5518
rfemur -20.4555 -10.5685 23.1064
rtibia 44.6649
rfoot -19.0819 -10.7213
rtoes 0.508483
lfemur -23.9134 -5.72101 -18.2086
ltibia 36.6414
lfoot -7.59404 -10.3313
ltoes -17.8761
287
root 17.3406 17.2416 -2.45389 1084.93 -64.2849 -3.05731
lowerback 46.18 5.69634 -0.758865
upperback 18.7341 4.1268 -0.77825
thorax -0.0573586 1.18972 -1.94461
lowerneck -8.56944 -10.0183 -0.406494
upperneck -22.7246 -11.595 20.6468
head -4.00698 -7.47984 6.61522
rclavicle -2.18663e-015 6.88292e-014
rhumerus 25.8805 38.9722 -59.3876
rradius 28.723
rwrist -14.5534
rhand -21.7703 7.91137
rfingers 7.12502
rthumb 4.63062 -22.018
lclavicle -2.18663e-015 6.88292e-014
lhumerus -6.15297 -21.4097 -277.548
lradius 25.5025
lwrist -332.547
lhand -14.2212 -9.8421
lfingers 7.12502
lthumb 11.9158 19.7988
rfemur -19.5274 -10.1361 23.1065
rtibia 44.3259
rfoot -19.0752 -10.7931
rtoes -0.173828
lfemur -23.0135 -5.52513 -18.1285
ltibia 36.5434
lfoot -7.95259 -10.1452
ltoes -17.6332
288
root 17.2783 17.2486 -2.41013 1084.86 -64.7226 -3.46578
lowerback 45.3756 5.71132 -0.936359
upperback 18.7234 4.12602 -0.748733
thorax 0.105555 1.17873 -1.80348
lowerneck -8.82084 -9.99614 -0.492759
upperneck -22.4095 -11.6207 20.6152
head -3.86127 -7.44734 6.57964
rclavicle -8.48811e-014 2.91716e-014
rhumerus 24.5609 39.1132 -60.0063
rradius 29.0344
rwrist -14.631
rhand -21.5959 7.99603
rfingers 7.12502
rthumb 4.79894 -21.9296
lclavicle -8.48811e-014 2.91716e-014
lhumerus -6.04889 -21.0331 -277.578
lradius 25.2736
lwrist -332.742
lhand -14.3549 -9.67166
lfingers 7.12502
lthumb 11.7869 19.9767
rfemur -18.5988 -9.7165 23.1034
rtibia 44.0109
rfoot -19.0631 -10.8666
rtoes -1.11316
lfemur -22.1189 -5.30543 -18.06
ltibia 36.4732
lfoot -8.27755 -10.0017
ltoes -17.13
